<?xml version="1.0" standalone="no"?>
<!DOCTYPE svg PUBLIC "-//W3C//DTD SVG 20010904//EN"
 "http://www.w3.org/TR/2001/REC-SVG-20010904/DTD/svg10.dtd">
<svg version="1.0" xmlns="http://www.w3.org/2000/svg"
 width="550.000000pt" height="550.000000pt" viewBox="0 0 550.000000 550.000000"
 preserveAspectRatio="xMidYMid meet">
<metadata>
Created by potrace 1.11, written by Peter Selinger 2001-2013
</metadata>
<g transform="translate(0.000000,550.000000) scale(0.100000,-0.100000)"
fill="#000000" stroke="none">
<path d="M3509 5200 c-7 -5 -14 -25 -14 -45 -1 -19 -8 -41 -17 -48 -15 -11
-27 -79 -28 -155 0 -31 -2 -33 -32 -32 -48 3 -52 1 -38 -15 20 -25 2 -30 -23
-7 -38 35 -68 37 -104 5 -23 -21 -32 -39 -35 -67 -2 -22 -9 -42 -18 -46 -8 -4
-25 -12 -37 -18 -13 -7 -32 -12 -43 -12 -19 0 -24 -10 -21 -37 2 -15 -25 -17
-34 -3 -8 13 -52 13 -57 0 -5 -16 -65 -20 -77 -6 -6 7 -23 12 -38 11 -64 -5
-129 -19 -135 -29 -15 -22 -8 -91 12 -124 11 -18 20 -39 20 -46 0 -7 14 -19
30 -26 33 -14 41 -49 15 -70 -8 -7 -15 -21 -15 -31 0 -24 -12 -24 -35 1 -18
20 -24 20 -168 6 -36 -4 -49 -1 -54 10 -6 18 -65 19 -94 2 -17 -10 -23 -10
-26 0 -3 6 -18 12 -34 12 -16 0 -29 5 -29 10 0 6 4 10 9 10 22 0 19 32 -4 52
-14 12 -25 27 -25 34 0 6 -16 19 -35 28 -31 15 -37 15 -65 1 -16 -8 -40 -13
-53 -10 -35 9 -115 -73 -88 -90 11 -6 1 -98 -12 -107 -6 -3 -15 -4 -21 -2 -16
6 -31 -7 -55 -46 -11 -19 -37 -46 -58 -60 -20 -14 -50 -45 -68 -69 -27 -39
-38 -46 -85 -57 -30 -7 -56 -17 -58 -23 -9 -27 -46 -61 -77 -71 -19 -6 -35
-16 -35 -21 0 -4 -26 -7 -57 -6 -50 2 -63 -2 -96 -27 -20 -15 -37 -35 -37 -42
0 -10 -13 -14 -40 -14 -30 0 -43 -5 -54 -22 -9 -13 -34 -34 -56 -48 -23 -14
-43 -35 -47 -50 -3 -13 -17 -35 -30 -47 -12 -13 -30 -37 -38 -53 -9 -17 -20
-30 -25 -30 -18 0 -21 -42 -5 -76 16 -35 33 -42 52 -23 14 14 45 -34 48 -75 2
-17 3 -34 4 -38 1 -3 22 0 48 8 56 17 84 12 172 -27 35 -16 70 -29 77 -29 16
0 64 -68 64 -91 0 -10 -16 -36 -35 -59 -19 -23 -35 -50 -35 -59 0 -9 -11 -45
-25 -80 -31 -81 -36 -148 -10 -167 16 -12 14 -14 -23 -20 -63 -10 -93 -48 -98
-125 -4 -56 -8 -66 -36 -89 -39 -33 -33 -59 14 -61 41 -2 36 -2 83 6 l40 8
-24 -26 c-13 -14 -33 -27 -45 -29 -33 -5 -25 -28 14 -43 72 -26 90 -35 90 -45
0 -19 42 -10 61 13 16 19 20 20 28 7 7 -10 4 -20 -10 -33 -23 -21 -24 -40 -4
-57 13 -11 20 -9 43 11 15 14 44 32 64 42 39 17 41 28 11 72 -32 47 1 48 46 1
19 -19 48 -40 65 -46 17 -7 40 -16 52 -22 16 -8 31 -5 64 12 39 20 45 20 55 7
6 -8 10 -39 9 -69 -1 -29 0 -61 3 -70 5 -21 33 -24 33 -4 0 13 19 26 47 32 24
5 45 -33 39 -70 -5 -30 -2 -38 22 -56 33 -26 40 -70 12 -77 -37 -10 -36 -66 1
-76 11 -3 19 -14 19 -26 0 -14 9 -25 25 -31 14 -5 25 -14 25 -19 0 -5 3 -16 6
-25 4 -12 -6 -9 -40 10 -26 14 -53 23 -62 20 -10 -4 -18 3 -24 20 -8 21 -15
25 -33 20 -12 -3 -34 -6 -48 -6 -29 0 -45 -30 -26 -49 8 -8 6 -11 -6 -11 -9 0
-17 4 -17 9 0 6 -11 6 -29 0 -92 -32 -21 -161 79 -145 l39 6 -5 -42 c-12 -89
-8 -148 9 -161 25 -19 47 -82 49 -138 0 -42 4 -52 23 -61 12 -5 22 -17 22 -26
1 -25 -58 -82 -84 -82 -16 0 -24 -7 -29 -27 -3 -16 -22 -64 -42 -108 -38 -85
-41 -108 -28 -273 5 -66 4 -72 -14 -72 -25 0 -39 -27 -33 -65 4 -27 0 -33 -31
-50 -40 -21 -47 -52 -20 -79 22 -23 61 -20 69 4 3 11 13 20 21 20 8 0 26 11
39 25 l25 24 0 -24 c0 -40 18 -75 39 -75 11 0 32 10 48 23 42 34 83 50 98 37
23 -19 72 19 79 60 8 48 16 58 53 64 41 8 50 -7 18 -32 -27 -21 -31 -42 -15
-73 13 -24 39 -25 56 -1 13 16 13 16 14 0 0 -18 26 -24 45 -10 17 11 65 99 65
117 0 8 -11 20 -25 25 -30 12 -32 26 -4 35 25 8 27 6 32 -25 2 -13 13 -30 24
-37 19 -13 24 -11 53 24 26 32 31 44 27 76 -3 20 -1 37 3 37 14 0 20 -15 22
-64 3 -50 25 -69 53 -46 12 10 18 10 30 0 9 -7 25 -10 41 -6 24 6 25 8 10 30
-26 41 -11 63 47 69 29 2 60 1 69 -4 9 -5 28 -9 41 -9 17 0 28 -8 36 -28 6
-15 20 -33 31 -39 16 -11 22 -8 44 20 15 18 33 39 41 48 22 23 19 75 -6 92
-18 13 -23 13 -44 -9 -13 -13 -31 -24 -38 -24 -21 0 -28 25 -13 46 10 14 28
18 82 18 59 1 72 -2 91 -21 28 -29 41 -29 54 1 7 14 21 27 33 30 33 8 96 65
96 86 0 11 9 24 20 30 13 7 20 21 20 41 0 16 7 41 16 54 37 56 84 325 57 325
-5 0 -19 -9 -31 -20 -29 -27 -38 -25 -46 11 -4 19 0 38 10 54 10 15 17 56 20
112 3 48 7 94 9 102 8 20 -16 93 -37 117 -14 16 -18 37 -18 96 0 73 -1 77 -30
102 -17 14 -37 42 -44 63 -8 21 -29 65 -47 98 -19 33 -40 72 -47 86 -8 14 -51
73 -98 130 -83 103 -157 228 -181 303 -17 52 -25 61 -107 108 -39 23 -84 55
-99 72 -16 17 -32 30 -36 29 -5 -1 -30 18 -57 42 -27 25 -58 45 -69 46 -59 3
-78 7 -86 20 -14 22 -5 34 30 37 l32 3 -6 77 c-4 42 -13 88 -20 102 -10 18
-10 30 -1 50 14 32 28 44 97 80 32 16 67 41 78 56 42 54 56 58 106 34 50 -24
51 -24 118 39 27 26 65 54 84 65 53 27 135 94 154 126 10 15 35 41 56 56 21
16 44 35 51 42 7 6 20 13 28 13 8 1 19 3 24 4 6 1 18 3 28 4 10 0 26 16 36 34
11 17 28 42 39 54 20 22 21 29 33 207 l7 109 -31 -6 c-34 -7 -55 17 -21 26 10
3 19 13 19 24 0 10 12 32 26 48 14 17 37 50 50 75 47 87 61 104 85 110 13 3
26 15 28 25 2 11 15 31 30 45 15 14 37 39 49 57 24 33 53 37 76 10 14 -18 40
-27 52 -19 21 16 35 53 25 70 -6 9 -11 13 -11 9 -1 -21 -39 17 -45 45 -4 18
-12 39 -17 46 -11 13 -39 17 -37 5 4 -26 -6 -21 -46 23 -39 41 -45 54 -45 90
0 36 -3 43 -22 46 -12 2 -25 12 -28 23 -4 16 -14 20 -51 21 -25 1 -52 -2 -60
-6z"/>
<path d="M4011 2420 c-15 -44 -5 -60 39 -60 43 0 78 28 58 48 -7 7 -18 12 -25
12 -7 0 -13 7 -13 15 0 9 -9 15 -24 15 -18 0 -27 -8 -35 -30z"/>
<path d="M4307 2413 c-16 -15 -6 -33 18 -33 27 0 32 9 13 28 -14 14 -22 15
-31 5z"/>
<path d="M2155 480 c-14 -16 -31 -20 -81 -20 -53 0 -64 -3 -69 -19 -3 -12 -23
-25 -48 -34 -30 -10 -43 -20 -45 -35 -2 -15 2 -22 12 -22 9 0 16 -6 16 -14 0
-36 36 -42 200 -32 70 4 88 9 102 26 9 11 26 20 37 20 17 0 21 6 21 35 0 24
-5 35 -14 35 -8 0 -21 8 -28 18 -7 10 -21 21 -30 25 -10 3 -18 13 -18 22 0 21
-34 19 -55 -5z"/>
</g>
</svg>
